<svg width="61" height="60" viewBox="0 0 61 60" fill="none" xmlns="http://www.w3.org/2000/svg">
<path d="M44.5533 13.4817C50.22 17.42 54.13 23.6817 54.9234 30.9067M6.38835 31.0483C6.74457 27.5836 7.83932 24.2356 9.59883 21.2298C11.3583 18.2239 13.7417 15.6302 16.5884 13.6233M19.705 55.33C22.9917 57.0017 26.7317 57.9367 30.67 57.9367C34.4667 57.9367 38.0367 57.0867 41.2384 55.5283M30.67 17.8167C32.759 17.8167 34.7625 16.9868 36.2397 15.5096C37.7168 14.0325 38.5467 12.029 38.5467 9.93999C38.5467 7.85097 37.7168 5.84751 36.2397 4.37035C34.7625 2.89318 32.759 2.06332 30.67 2.06332C28.581 2.06332 26.5775 2.89318 25.1004 4.37035C23.6232 5.84751 22.7933 7.85097 22.7933 9.93999C22.7933 12.029 23.6232 14.0325 25.1004 15.5096C26.5775 16.9868 28.581 17.8167 30.67 17.8167ZM10.185 52.44C12.274 52.44 14.2775 51.6101 15.7547 50.133C17.2318 48.6558 18.0617 46.6523 18.0617 44.5633C18.0617 42.4743 17.2318 40.4708 15.7547 38.9937C14.2775 37.5165 12.274 36.6867 10.185 36.6867C8.09599 36.6867 6.09253 37.5165 4.61537 38.9937C3.13821 40.4708 2.30835 42.4743 2.30835 44.5633C2.30835 46.6523 3.13821 48.6558 4.61537 50.133C6.09253 51.6101 8.09599 52.44 10.185 52.44ZM50.815 52.44C52.904 52.44 54.9075 51.6101 56.3847 50.133C57.8618 48.6558 58.6917 46.6523 58.6917 44.5633C58.6917 42.4743 57.8618 40.4708 56.3847 38.9937C54.9075 37.5165 52.904 36.6867 50.815 36.6867C48.726 36.6867 46.7225 37.5165 45.2454 38.9937C43.7682 40.4708 42.9383 42.4743 42.9383 44.5633C42.9383 46.6523 43.7682 48.6558 45.2454 50.133C46.7225 51.6101 48.726 52.44 50.815 52.44Z" stroke="#5BC0E0" stroke-width="4" stroke-linecap="round" stroke-linejoin="round"/>
</svg>
